<mxfile host="65bd71144e">
    <diagram name="Page-1" id="AIPoxRdhrtce3UdJt4KN">
        <mxGraphModel dx="934" dy="491" grid="0" gridSize="10" guides="1" tooltips="1" connect="1" arrows="1" fold="1" page="1" pageScale="1" pageWidth="827" pageHeight="1169" math="0" shadow="0">
            <root>
                <mxCell id="0"/>
                <mxCell id="1" parent="0"/>
                <mxCell id="uWxkei3LBMc92IfPlKmw-2" value="&lt;u&gt;External System API Call&lt;/u&gt;&lt;div&gt;- Submit Order Application&lt;/div&gt;" style="rounded=0;whiteSpace=wrap;html=1;" parent="1" vertex="1">
                    <mxGeometry x="32" y="47" width="216" height="60" as="geometry"/>
                </mxCell>
                <mxCell id="uWxkei3LBMc92IfPlKmw-4" value="Order Service" style="rounded=0;whiteSpace=wrap;html=1;fillColor=#fff2cc;strokeColor=#d6b656;" parent="1" vertex="1">
                    <mxGeometry x="520" y="47" width="121" height="57.5" as="geometry"/>
                </mxCell>
                <mxCell id="uWxkei3LBMc92IfPlKmw-7" value="1. External Organisations use API calls to create Order" style="text;html=1;align=left;verticalAlign=middle;whiteSpace=wrap;rounded=0;" parent="1" vertex="1">
                    <mxGeometry x="32" y="11" width="239" height="30" as="geometry"/>
                </mxCell>
                <mxCell id="uWxkei3LBMc92IfPlKmw-13" value="" style="endArrow=classic;startArrow=classic;html=1;rounded=0;entryX=0.5;entryY=1;entryDx=0;entryDy=0;exitX=0.5;exitY=0;exitDx=0;exitDy=0;" parent="1" target="uWxkei3LBMc92IfPlKmw-4" edge="1" source="sGVSHZmp7kZCRn9jOwzH-1">
                    <mxGeometry width="50" height="50" relative="1" as="geometry">
                        <mxPoint x="604" y="211.5" as="sourcePoint"/>
                        <mxPoint x="424" y="138.28932188134524" as="targetPoint"/>
                    </mxGeometry>
                </mxCell>
                <mxCell id="3v4G5k-9SBofemgfU9J0-1" value="2. Order details are sent to &lt;br&gt;Order Service" style="text;html=1;align=left;verticalAlign=middle;whiteSpace=wrap;rounded=0;" parent="1" vertex="1">
                    <mxGeometry x="312" y="11" width="155" height="30" as="geometry"/>
                </mxCell>
                <mxCell id="3v4G5k-9SBofemgfU9J0-18" value="Delivery Workflow (Temporal)" style="rounded=0;whiteSpace=wrap;html=1;fillColor=light-dark(#FFF4C3,var(--ge-dark-color, #121212));strokeColor=light-dark(#FFD966,#FFFFFF);" parent="1" vertex="1">
                    <mxGeometry x="104" y="211.5" width="222" height="77" as="geometry"/>
                </mxCell>
                <mxCell id="sGVSHZmp7kZCRn9jOwzH-1" value="External Order Workflow (Temporal)" style="rounded=0;whiteSpace=wrap;html=1;fillColor=light-dark(#FFF4C3,var(--ge-dark-color, #121212));strokeColor=light-dark(#FFD966,#FFFFFF);" parent="1" vertex="1">
                    <mxGeometry x="469.5" y="211.5" width="222" height="77" as="geometry"/>
                </mxCell>
                <mxCell id="sGVSHZmp7kZCRn9jOwzH-2" value="Invoice Service" style="rounded=0;whiteSpace=wrap;html=1;fillColor=#fff2cc;strokeColor=#d6b656;" parent="1" vertex="1">
                    <mxGeometry x="520" y="375" width="121" height="57.5" as="geometry"/>
                </mxCell>
                <mxCell id="sGVSHZmp7kZCRn9jOwzH-3" value="3. Order Service initiates External Order Workflow in Temporal, starting a new session" style="text;html=1;align=left;verticalAlign=middle;whiteSpace=wrap;rounded=0;" parent="1" vertex="1">
                    <mxGeometry x="590.5" y="169" width="195" height="30" as="geometry"/>
                </mxCell>
                <mxCell id="sGVSHZmp7kZCRn9jOwzH-4" value="4. Generates custom invoice" style="text;html=1;align=left;verticalAlign=middle;whiteSpace=wrap;rounded=0;" parent="1" vertex="1">
                    <mxGeometry x="597" y="308" width="166" height="30" as="geometry"/>
                </mxCell>
                <mxCell id="sGVSHZmp7kZCRn9jOwzH-5" value="" style="endArrow=classic;startArrow=classic;html=1;rounded=0;exitX=0.5;exitY=0;exitDx=0;exitDy=0;" parent="1" source="sGVSHZmp7kZCRn9jOwzH-2" target="sGVSHZmp7kZCRn9jOwzH-1" edge="1">
                    <mxGeometry width="50" height="50" relative="1" as="geometry">
                        <mxPoint x="551.5" y="375" as="sourcePoint"/>
                        <mxPoint x="611.5" y="288" as="targetPoint"/>
                    </mxGeometry>
                </mxCell>
                <mxCell id="sGVSHZmp7kZCRn9jOwzH-7" value="6. Start Delivery Workflow with created Order" style="text;html=1;align=left;verticalAlign=middle;whiteSpace=wrap;rounded=0;" parent="1" vertex="1">
                    <mxGeometry x="231" y="127" width="150" height="30" as="geometry"/>
                </mxCell>
                <mxCell id="11" value="&lt;span style=&quot;color: rgb(0, 0, 0); font-family: Helvetica; font-size: 12px; font-style: normal; font-variant-ligatures: normal; font-variant-caps: normal; font-weight: 400; letter-spacing: normal; orphans: 2; text-indent: 0px; text-transform: none; widows: 2; word-spacing: 0px; -webkit-text-stroke-width: 0px; white-space: normal; background-color: rgb(251, 251, 251); text-decoration-thickness: initial; text-decoration-style: initial; text-decoration-color: initial; float: none; display: inline !important;&quot;&gt;5. Order Workflow calls Order Service to trigger Delivery Workflow&lt;/span&gt;" style="text;whiteSpace=wrap;html=1;align=left;" parent="1" vertex="1">
                    <mxGeometry x="442" y="159" width="158" height="36" as="geometry"/>
                </mxCell>
                <mxCell id="12" value="&lt;h5&gt;&lt;font style=&quot;font-size: 15px;&quot; face=&quot;Lucida Console&quot;&gt;&lt;i&gt;HTTP Post&lt;/i&gt;&lt;/font&gt;&lt;/h5&gt;" style="text;html=1;align=left;verticalAlign=middle;whiteSpace=wrap;rounded=0;" parent="1" vertex="1">
                    <mxGeometry x="457" y="14" width="100" height="30" as="geometry"/>
                </mxCell>
                <mxCell id="14" value="&lt;h5&gt;&lt;font style=&quot;font-size: 15px;&quot; face=&quot;Lucida Console&quot;&gt;&lt;i&gt;HTTP Post&lt;/i&gt;&lt;/font&gt;&lt;/h5&gt;" style="text;html=1;align=left;verticalAlign=middle;whiteSpace=wrap;rounded=0;" parent="1" vertex="1">
                    <mxGeometry x="597" y="330" width="100" height="30" as="geometry"/>
                </mxCell>
                <mxCell id="15" value="&lt;h5&gt;&lt;font style=&quot;font-size: 15px;&quot; face=&quot;Lucida Console&quot;&gt;&lt;i&gt;HTTP Post&lt;/i&gt;&lt;/font&gt;&lt;/h5&gt;" style="text;html=1;align=left;verticalAlign=middle;whiteSpace=wrap;rounded=0;" parent="1" vertex="1">
                    <mxGeometry x="252" y="157" width="100" height="30" as="geometry"/>
                </mxCell>
                <mxCell id="16" value="" style="rounded=0;whiteSpace=wrap;html=1;strokeWidth=5;perimeterSpacing=6;" parent="1" vertex="1">
                    <mxGeometry x="622" y="460" width="190" height="118" as="geometry"/>
                </mxCell>
                <mxCell id="17" value="" style="rounded=0;whiteSpace=wrap;html=1;fillColor=#fff2cc;strokeColor=#d6b656;" parent="1" vertex="1">
                    <mxGeometry x="638" y="500" width="65" height="40" as="geometry"/>
                </mxCell>
                <mxCell id="18" value="Microservice" style="text;whiteSpace=wrap;align=left;fontColor=#000000;labelBackgroundColor=none;" parent="1" vertex="1">
                    <mxGeometry x="712.5" y="507.75" width="73" height="24.5" as="geometry"/>
                </mxCell>
                <mxCell id="21" value="" style="endArrow=classic;html=1;" edge="1" parent="1">
                    <mxGeometry width="50" height="50" relative="1" as="geometry">
                        <mxPoint x="246" y="78" as="sourcePoint"/>
                        <mxPoint x="323" y="78" as="targetPoint"/>
                    </mxGeometry>
                </mxCell>
                <mxCell id="22" value="API Validator Service&lt;div&gt;(Outsystems)&lt;/div&gt;" style="rounded=0;whiteSpace=wrap;html=1;fillColor=#fff2cc;strokeColor=#d6b656;" vertex="1" parent="1">
                    <mxGeometry x="321" y="44" width="145" height="57.5" as="geometry"/>
                </mxCell>
                <mxCell id="23" value="" style="endArrow=classic;html=1;" edge="1" parent="1">
                    <mxGeometry width="50" height="50" relative="1" as="geometry">
                        <mxPoint x="466" y="76" as="sourcePoint"/>
                        <mxPoint x="519" y="76.33" as="targetPoint"/>
                    </mxGeometry>
                </mxCell>
                <mxCell id="26" value="" style="edgeStyle=elbowEdgeStyle;elbow=vertical;endArrow=classic;html=1;curved=0;rounded=0;endSize=8;startSize=8;entryX=0.449;entryY=0.028;entryDx=0;entryDy=0;entryPerimeter=0;" edge="1" parent="1" target="3v4G5k-9SBofemgfU9J0-18">
                    <mxGeometry width="50" height="50" relative="1" as="geometry">
                        <mxPoint x="520" y="100" as="sourcePoint"/>
                        <mxPoint x="570" y="50" as="targetPoint"/>
                    </mxGeometry>
                </mxCell>
            </root>
        </mxGraphModel>
    </diagram>
</mxfile>